<svg xmlns="http://www.w3.org/2000/svg" width="1200" height="630" viewBox="0 0 1200 630" role="img" aria-labelledby="ogtitle"><title id="ogtitle">Bravite — coragem para criar, engenharia para evoluir</title><rect x="0" y="0" width="1200" height="630" fill="#0A0A0A" /><rect x="80" y="72" width="42" height="5" fill="#2D6BFF" /><g aria-label="SOFTWARE HOUSE"><path d="M311 -14Q232 -14 171.0 14.0Q110 42 75.5 96.5Q41 151 41 229V254H148V229Q148 155 192.5 118.0Q237 81 311 81Q386 81 424.0 112.5Q462 144 462 194Q462 227 444.0 248.0Q426 269 393.0 281.5Q360 294 314 305L277 314Q210 330 160.5 353.5Q111 377 84.0 416.0Q57 455 57 516Q57 578 87.5 622.0Q118 666 172.0 690.0Q226 714 299 714Q372 714 429.5 689.0Q487 664 520.0 615.0Q553 566 553 492V456H446V492Q446 537 427.5 565.0Q409 593 376.0 606.0Q343 619 299 619Q235 619 199.5 592.5Q164 566 164 519Q164 487 179.5 466.5Q195 446 225.0 433.0Q255 420 300 410L337 401Q405 386 457.0 362.5Q509 339 539.0 299.0Q569 259 569 196Q569 133 537.5 86.0Q506 39 448.0 12.5Q390 -14 311 -14Z" transform="translate(80 116) scale(0.018 -0.018)" fill="#FFFFFF" /><path d="M336 -14Q207 -14 131.0 58.5Q55 131 55 268V432Q55 569 131.0 641.5Q207 714 336 714Q465 714 541.5 641.5Q618 569 618 432V268Q618 131 541.5 58.5Q465 -14 336 -14ZM336 83Q419 83 464.0 131.5Q509 180 509 264V436Q509 520 464.0 568.5Q419 617 336 617Q255 617 209.0 568.5Q163 520 163 436V264Q163 180 209.0 131.5Q255 83 336 83Z" transform="translate(90.962 116) scale(0.018 -0.018)" fill="#FFFFFF" /><path d="M73 0V700H505V602H181V400H479V302H181V0Z" transform="translate(103.07600000000001 116) scale(0.018 -0.018)" fill="#FFFFFF" /><path d="M240 0V602H25V700H563V602H348V0Z" transform="translate(112.742 116) scale(0.018 -0.018)" fill="#FFFFFF" /><path d="M136 0 33 700H141L225 73H241L349 700H538L646 73H662L745 700H853L750 0H561L451 636H435L326 0Z" transform="translate(123.32600000000001 116) scale(0.018 -0.018)" fill="#FFFFFF" /><path d="M21 0 221 700H411L610 0H499L453 165H179L133 0ZM206 265H426L324 633H308Z" transform="translate(139.292 116) scale(0.018 -0.018)" fill="#FFFFFF" /><path d="M73 0V700H367Q432 700 481.5 677.5Q531 655 558.5 613.0Q586 571 586 513V502Q586 436 554.5 396.5Q523 357 478 341V325Q516 323 539.0 299.5Q562 276 562 232V0H453V217Q453 244 439.0 260.0Q425 276 394 276H181V0ZM181 374H355Q413 374 445.0 403.5Q477 433 477 484V492Q477 543 445.5 572.5Q414 602 355 602H181Z" transform="translate(150.668 116) scale(0.018 -0.018)" fill="#FFFFFF" /><path d="M73 0V700H514V602H181V401H486V303H181V98H519V0Z" transform="translate(162.044 116) scale(0.018 -0.018)" fill="#FFFFFF" /><path d="M73 0V700H181V400H475V700H583V0H475V302H181V0Z" transform="translate(176.69600000000003 116) scale(0.018 -0.018)" fill="#FFFFFF" /><path d="M336 -14Q207 -14 131.0 58.5Q55 131 55 268V432Q55 569 131.0 641.5Q207 714 336 714Q465 714 541.5 641.5Q618 569 618 432V268Q618 131 541.5 58.5Q465 -14 336 -14ZM336 83Q419 83 464.0 131.5Q509 180 509 264V436Q509 520 464.0 568.5Q419 617 336 617Q255 617 209.0 568.5Q163 520 163 436V264Q163 180 209.0 131.5Q255 83 336 83Z" transform="translate(188.50400000000002 116) scale(0.018 -0.018)" fill="#FFFFFF" /><path d="M335 -14Q252 -14 192.5 16.0Q133 46 100.5 102.5Q68 159 68 240V700H177V237Q177 163 218.0 123.0Q259 83 335 83Q411 83 452.0 123.0Q493 163 493 237V700H601V240Q601 159 569.0 102.5Q537 46 477.0 16.0Q417 -14 335 -14Z" transform="translate(200.61800000000002 116) scale(0.018 -0.018)" fill="#FFFFFF" /><path d="M311 -14Q232 -14 171.0 14.0Q110 42 75.5 96.5Q41 151 41 229V254H148V229Q148 155 192.5 118.0Q237 81 311 81Q386 81 424.0 112.5Q462 144 462 194Q462 227 444.0 248.0Q426 269 393.0 281.5Q360 294 314 305L277 314Q210 330 160.5 353.5Q111 377 84.0 416.0Q57 455 57 516Q57 578 87.5 622.0Q118 666 172.0 690.0Q226 714 299 714Q372 714 429.5 689.0Q487 664 520.0 615.0Q553 566 553 492V456H446V492Q446 537 427.5 565.0Q409 593 376.0 606.0Q343 619 299 619Q235 619 199.5 592.5Q164 566 164 519Q164 487 179.5 466.5Q195 446 225.0 433.0Q255 420 300 410L337 401Q405 386 457.0 362.5Q509 339 539.0 299.0Q569 259 569 196Q569 133 537.5 86.0Q506 39 448.0 12.5Q390 -14 311 -14Z" transform="translate(212.66000000000003 116) scale(0.018 -0.018)" fill="#FFFFFF" /><path d="M73 0V700H514V602H181V401H486V303H181V98H519V0Z" transform="translate(223.622 116) scale(0.018 -0.018)" fill="#FFFFFF" /></g><svg width="850" height="123.03" viewBox="58 76 760 110" role="img" aria-labelledby="titulo" x="76" y="178"><title id="titulo">Bravite — assinatura horizontal reversa</title><path d="M60 118L118 79H186L152 104H121L60 145Z M78 184L130 149H202L156 184Z" fill="#FFFFFF" /><path d="M60 155L125 112H198L158 141H126L60 184Z" fill="#2D6BFF" /><path d="M260 96H301C317 96 324 104 324 115C324 123 320 129 313 132C321 135 325 141 325 150C325 160 317 166 301 166H260Z M269 104V128H300C310 128 315 124 315 116C315 108 310 104 301 104Z M269 136V158H301C311 158 316 155 316 149C316 141 311 136 301 136Z" fill="#FFFFFF" fill-rule="evenodd" /><path d="M357 96H389C406 96 413 105 413 116C413 128 405 135 390 135H385L413 166H401L373 127H389C399 127 404 123 404 116C404 108 399 104 389 104H366V166H357Z" fill="#FFFFFF" fill-rule="evenodd" /><path d="M439 166L465 96H477L505 166H495L471 106L449 166Z" fill="#FFFFFF" fill-rule="evenodd" /><path d="M519 96H529L554 157L580 96H590L560 166H549Z" fill="#FFFFFF" fill-rule="evenodd" /><path d="M618 96H627V166H618Z" fill="#FFFFFF" fill-rule="evenodd" /><path d="M659 96H719V104H694V166H684V104H659Z" fill="#FFFFFF" fill-rule="evenodd" /><path d="M751 96H809V104H760V128H803V136H760V158H809V166H751Z" fill="#FFFFFF" fill-rule="evenodd" /></svg><g aria-label="Coragem para criar."><path d="M333 -14Q205 -14 130.0 58.5Q55 131 55 268V432Q55 569 130.0 641.5Q205 714 333 714Q459 714 527.5 644.0Q596 574 596 453V447H489V456Q489 527 450.5 572.0Q412 617 333 617Q253 617 208.0 568.5Q163 520 163 434V266Q163 181 208.0 132.0Q253 83 333 83Q412 83 450.5 128.5Q489 174 489 244V261H596V247Q596 126 527.5 56.0Q459 -14 333 -14Z" transform="translate(80 426) scale(0.042 -0.042)" fill="#FFFFFF" /><path d="M307 -14Q233 -14 175.5 16.5Q118 47 85.0 104.0Q52 161 52 239V254Q52 332 85.0 388.5Q118 445 175.5 476.0Q233 507 307 507Q381 507 439.0 476.0Q497 445 530.0 388.5Q563 332 563 254V239Q563 161 530.0 104.0Q497 47 439.0 16.5Q381 -14 307 -14ZM307 78Q375 78 417.5 121.5Q460 165 460 242V251Q460 328 418.0 371.5Q376 415 307 415Q240 415 197.5 371.5Q155 328 155 251V242Q155 165 197.5 121.5Q240 78 307 78Z" transform="translate(107.006 426) scale(0.042 -0.042)" fill="#FFFFFF" /><path d="M76 0V493H177V435H193Q205 466 231.5 480.5Q258 495 297 495H356V402H293Q243 402 211.0 374.5Q179 347 179 290V0Z" transform="translate(132.836 426) scale(0.042 -0.042)" fill="#FFFFFF" /><path d="M229 -14Q176 -14 134.5 4.0Q93 22 68.5 57.0Q44 92 44 142Q44 193 68.5 226.5Q93 260 135.5 277.0Q178 294 232 294H382V326Q382 369 356.0 395.0Q330 421 276 421Q223 421 195.0 396.0Q167 371 158 331L62 362Q74 402 100.5 434.5Q127 467 171.0 487.0Q215 507 277 507Q373 507 428.0 458.0Q483 409 483 319V116Q483 86 511 86H553V0H476Q441 0 419.0 18.0Q397 36 397 67V70H382Q374 55 358.0 35.0Q342 15 311.0 0.5Q280 -14 229 -14ZM244 71Q306 71 344.0 106.5Q382 142 382 204V214H238Q197 214 172.0 196.5Q147 179 147 145Q147 111 173.0 91.0Q199 71 244 71Z" transform="translate(149.09 426) scale(0.042 -0.042)" fill="#FFFFFF" /><path d="M52 244V259Q52 337 83.5 392.0Q115 447 167.0 477.0Q219 507 281 507Q353 507 391.5 480.0Q430 453 448 422H464V493H564V-101Q564 -146 537.5 -173.0Q511 -200 465 -200H133V-110H433Q462 -110 462 -80V77H446Q435 59 415.0 40.0Q395 21 362.5 9.0Q330 -3 281 -3Q219 -3 166.5 26.5Q114 56 83.0 111.5Q52 167 52 244ZM309 87Q376 87 419.5 129.5Q463 172 463 247V256Q463 333 420.0 374.5Q377 416 309 416Q243 416 199.5 374.5Q156 333 156 256V247Q156 172 199.5 129.5Q243 87 309 87Z" transform="translate(173.324 426) scale(0.042 -0.042)" fill="#FFFFFF" /><path d="M302 -14Q227 -14 171.0 17.5Q115 49 83.5 106.5Q52 164 52 240V252Q52 329 83.0 386.5Q114 444 169.5 475.5Q225 507 298 507Q369 507 422.5 475.5Q476 444 506.0 388.0Q536 332 536 257V218H157Q159 153 200.5 114.5Q242 76 304 76Q362 76 391.5 102.0Q421 128 437 162L522 118Q508 90 481.5 59.0Q455 28 412.0 7.0Q369 -14 302 -14ZM158 297H431Q427 353 391.0 384.5Q355 416 297 416Q239 416 202.5 384.5Q166 353 158 297Z" transform="translate(200.204 426) scale(0.042 -0.042)" fill="#FFFFFF" /><path d="M76 0V493H177V435H193Q207 461 238.0 481.0Q269 501 322 501Q377 501 410.5 478.5Q444 456 461 421H477Q494 455 526.5 478.0Q559 501 619 501Q667 501 704.0 481.5Q741 462 763.0 423.5Q785 385 785 328V0H682V320Q682 365 657.5 389.5Q633 414 588 414Q540 414 511.0 383.0Q482 352 482 294V0H379V320Q379 365 354.5 389.5Q330 414 285 414Q237 414 208.0 383.0Q179 352 179 294V0Z" transform="translate(224.732 426) scale(0.042 -0.042)" fill="#FFFFFF" /><path d="M76 -200V493H177V422H193Q212 455 250.5 481.0Q289 507 361 507Q423 507 474.5 477.0Q526 447 557.5 390.5Q589 334 589 254V239Q589 159 558.0 102.5Q527 46 475.0 16.0Q423 -14 361 -14Q313 -14 280.0 -2.0Q247 10 227.0 28.5Q207 47 195 67H179V-200ZM331 76Q399 76 442.0 119.0Q485 162 485 242V251Q485 330 441.5 373.0Q398 416 331 416Q265 416 221.5 373.0Q178 330 178 251V242Q178 162 221.5 119.0Q265 76 331 76Z" transform="translate(271.436 426) scale(0.042 -0.042)" fill="#FFFFFF" /><path d="M229 -14Q176 -14 134.5 4.0Q93 22 68.5 57.0Q44 92 44 142Q44 193 68.5 226.5Q93 260 135.5 277.0Q178 294 232 294H382V326Q382 369 356.0 395.0Q330 421 276 421Q223 421 195.0 396.0Q167 371 158 331L62 362Q74 402 100.5 434.5Q127 467 171.0 487.0Q215 507 277 507Q373 507 428.0 458.0Q483 409 483 319V116Q483 86 511 86H553V0H476Q441 0 419.0 18.0Q397 36 397 67V70H382Q374 55 358.0 35.0Q342 15 311.0 0.5Q280 -14 229 -14ZM244 71Q306 71 344.0 106.5Q382 142 382 204V214H238Q197 214 172.0 196.5Q147 179 147 145Q147 111 173.0 91.0Q199 71 244 71Z" transform="translate(298.358 426) scale(0.042 -0.042)" fill="#FFFFFF" /><path d="M76 0V493H177V435H193Q205 466 231.5 480.5Q258 495 297 495H356V402H293Q243 402 211.0 374.5Q179 347 179 290V0Z" transform="translate(322.592 426) scale(0.042 -0.042)" fill="#FFFFFF" /><path d="M229 -14Q176 -14 134.5 4.0Q93 22 68.5 57.0Q44 92 44 142Q44 193 68.5 226.5Q93 260 135.5 277.0Q178 294 232 294H382V326Q382 369 356.0 395.0Q330 421 276 421Q223 421 195.0 396.0Q167 371 158 331L62 362Q74 402 100.5 434.5Q127 467 171.0 487.0Q215 507 277 507Q373 507 428.0 458.0Q483 409 483 319V116Q483 86 511 86H553V0H476Q441 0 419.0 18.0Q397 36 397 67V70H382Q374 55 358.0 35.0Q342 15 311.0 0.5Q280 -14 229 -14ZM244 71Q306 71 344.0 106.5Q382 142 382 204V214H238Q197 214 172.0 196.5Q147 179 147 145Q147 111 173.0 91.0Q199 71 244 71Z" transform="translate(338.846 426) scale(0.042 -0.042)" fill="#FFFFFF" /><path d="M305 -14Q234 -14 176.5 16.0Q119 46 85.5 103.0Q52 160 52 240V253Q52 333 85.5 389.5Q119 446 176.5 476.5Q234 507 305 507Q376 507 426.0 481.0Q476 455 506.5 412.0Q537 369 546 317L446 296Q441 329 425.0 356.0Q409 383 380.0 399.0Q351 415 307 415Q264 415 229.5 395.5Q195 376 175.0 339.5Q155 303 155 251V242Q155 190 175.0 153.0Q195 116 229.5 97.0Q264 78 307 78Q372 78 406.0 111.5Q440 145 449 197L549 174Q537 123 506.5 80.0Q476 37 426.0 11.5Q376 -14 305 -14Z" transform="translate(373.78999999999996 426) scale(0.042 -0.042)" fill="#FFFFFF" /><path d="M76 0V493H177V435H193Q205 466 231.5 480.5Q258 495 297 495H356V402H293Q243 402 211.0 374.5Q179 347 179 290V0Z" transform="translate(398.65399999999994 426) scale(0.042 -0.042)" fill="#FFFFFF" /><path d="M76 0V493H179V0ZM128 560Q98 560 77.5 579.5Q57 599 57 630Q57 661 77.5 680.5Q98 700 128 700Q159 700 179.0 680.5Q199 661 199 630Q199 599 179.0 579.5Q159 560 128 560Z" transform="translate(414.90799999999996 426) scale(0.042 -0.042)" fill="#FFFFFF" /><path d="M229 -14Q176 -14 134.5 4.0Q93 22 68.5 57.0Q44 92 44 142Q44 193 68.5 226.5Q93 260 135.5 277.0Q178 294 232 294H382V326Q382 369 356.0 395.0Q330 421 276 421Q223 421 195.0 396.0Q167 371 158 331L62 362Q74 402 100.5 434.5Q127 467 171.0 487.0Q215 507 277 507Q373 507 428.0 458.0Q483 409 483 319V116Q483 86 511 86H553V0H476Q441 0 419.0 18.0Q397 36 397 67V70H382Q374 55 358.0 35.0Q342 15 311.0 0.5Q280 -14 229 -14ZM244 71Q306 71 344.0 106.5Q382 142 382 204V214H238Q197 214 172.0 196.5Q147 179 147 145Q147 111 173.0 91.0Q199 71 244 71Z" transform="translate(425.65999999999997 426) scale(0.042 -0.042)" fill="#FFFFFF" /><path d="M76 0V493H177V435H193Q205 466 231.5 480.5Q258 495 297 495H356V402H293Q243 402 211.0 374.5Q179 347 179 290V0Z" transform="translate(449.89399999999995 426) scale(0.042 -0.042)" fill="#FFFFFF" /><path d="M138 -14Q103 -14 79.5 9.0Q56 32 56 68Q56 104 79.5 126.5Q103 149 138 149Q173 149 196.5 126.0Q220 103 220 68Q220 32 196.5 9.0Q173 -14 138 -14Z" transform="translate(466.14799999999997 426) scale(0.042 -0.042)" fill="#FFFFFF" /></g><g aria-label="Engenharia para evoluir."><path d="M73 0V700H514V602H181V401H486V303H181V98H519V0Z" transform="translate(80 480) scale(0.042 -0.042)" fill="#FFFFFF" /><path d="M76 0V493H177V419H193Q207 449 243.0 475.0Q279 501 350 501Q406 501 449.5 476.0Q493 451 518.0 405.5Q543 360 543 296V0H440V288Q440 352 408.0 382.5Q376 413 320 413Q256 413 217.5 371.0Q179 329 179 249V0Z" transform="translate(103.47800000000001 480) scale(0.042 -0.042)" fill="#FFFFFF" /><path d="M52 244V259Q52 337 83.5 392.0Q115 447 167.0 477.0Q219 507 281 507Q353 507 391.5 480.0Q430 453 448 422H464V493H564V-101Q564 -146 537.5 -173.0Q511 -200 465 -200H133V-110H433Q462 -110 462 -80V77H446Q435 59 415.0 40.0Q395 21 362.5 9.0Q330 -3 281 -3Q219 -3 166.5 26.5Q114 56 83.0 111.5Q52 167 52 244ZM309 87Q376 87 419.5 129.5Q463 172 463 247V256Q463 333 420.0 374.5Q377 416 309 416Q243 416 199.5 374.5Q156 333 156 256V247Q156 172 199.5 129.5Q243 87 309 87Z" transform="translate(129.30800000000002 480) scale(0.042 -0.042)" fill="#FFFFFF" /><path d="M302 -14Q227 -14 171.0 17.5Q115 49 83.5 106.5Q52 164 52 240V252Q52 329 83.0 386.5Q114 444 169.5 475.5Q225 507 298 507Q369 507 422.5 475.5Q476 444 506.0 388.0Q536 332 536 257V218H157Q159 153 200.5 114.5Q242 76 304 76Q362 76 391.5 102.0Q421 128 437 162L522 118Q508 90 481.5 59.0Q455 28 412.0 7.0Q369 -14 302 -14ZM158 297H431Q427 353 391.0 384.5Q355 416 297 416Q239 416 202.5 384.5Q166 353 158 297Z" transform="translate(156.18800000000002 480) scale(0.042 -0.042)" fill="#FFFFFF" /><path d="M76 0V493H177V419H193Q207 449 243.0 475.0Q279 501 350 501Q406 501 449.5 476.0Q493 451 518.0 405.5Q543 360 543 296V0H440V288Q440 352 408.0 382.5Q376 413 320 413Q256 413 217.5 371.0Q179 329 179 249V0Z" transform="translate(180.716 480) scale(0.042 -0.042)" fill="#FFFFFF" /><path d="M76 0V700H179V423H195Q205 442 223.5 460.0Q242 478 272.5 489.5Q303 501 350 501Q406 501 449.5 476.0Q493 451 518.0 405.5Q543 360 543 296V0H440V288Q440 352 408.0 382.5Q376 413 320 413Q256 413 217.5 371.0Q179 329 179 249V0Z" transform="translate(206.54600000000002 480) scale(0.042 -0.042)" fill="#FFFFFF" /><path d="M229 -14Q176 -14 134.5 4.0Q93 22 68.5 57.0Q44 92 44 142Q44 193 68.5 226.5Q93 260 135.5 277.0Q178 294 232 294H382V326Q382 369 356.0 395.0Q330 421 276 421Q223 421 195.0 396.0Q167 371 158 331L62 362Q74 402 100.5 434.5Q127 467 171.0 487.0Q215 507 277 507Q373 507 428.0 458.0Q483 409 483 319V116Q483 86 511 86H553V0H476Q441 0 419.0 18.0Q397 36 397 67V70H382Q374 55 358.0 35.0Q342 15 311.0 0.5Q280 -14 229 -14ZM244 71Q306 71 344.0 106.5Q382 142 382 204V214H238Q197 214 172.0 196.5Q147 179 147 145Q147 111 173.0 91.0Q199 71 244 71Z" transform="translate(232.37600000000003 480) scale(0.042 -0.042)" fill="#FFFFFF" /><path d="M76 0V493H177V435H193Q205 466 231.5 480.5Q258 495 297 495H356V402H293Q243 402 211.0 374.5Q179 347 179 290V0Z" transform="translate(256.61 480) scale(0.042 -0.042)" fill="#FFFFFF" /><path d="M76 0V493H179V0ZM128 560Q98 560 77.5 579.5Q57 599 57 630Q57 661 77.5 680.5Q98 700 128 700Q159 700 179.0 680.5Q199 661 199 630Q199 599 179.0 579.5Q159 560 128 560Z" transform="translate(272.86400000000003 480) scale(0.042 -0.042)" fill="#FFFFFF" /><path d="M229 -14Q176 -14 134.5 4.0Q93 22 68.5 57.0Q44 92 44 142Q44 193 68.5 226.5Q93 260 135.5 277.0Q178 294 232 294H382V326Q382 369 356.0 395.0Q330 421 276 421Q223 421 195.0 396.0Q167 371 158 331L62 362Q74 402 100.5 434.5Q127 467 171.0 487.0Q215 507 277 507Q373 507 428.0 458.0Q483 409 483 319V116Q483 86 511 86H553V0H476Q441 0 419.0 18.0Q397 36 397 67V70H382Q374 55 358.0 35.0Q342 15 311.0 0.5Q280 -14 229 -14ZM244 71Q306 71 344.0 106.5Q382 142 382 204V214H238Q197 214 172.0 196.5Q147 179 147 145Q147 111 173.0 91.0Q199 71 244 71Z" transform="translate(283.61600000000004 480) scale(0.042 -0.042)" fill="#FFFFFF" /><path d="M76 -200V493H177V422H193Q212 455 250.5 481.0Q289 507 361 507Q423 507 474.5 477.0Q526 447 557.5 390.5Q589 334 589 254V239Q589 159 558.0 102.5Q527 46 475.0 16.0Q423 -14 361 -14Q313 -14 280.0 -2.0Q247 10 227.0 28.5Q207 47 195 67H179V-200ZM331 76Q399 76 442.0 119.0Q485 162 485 242V251Q485 330 441.5 373.0Q398 416 331 416Q265 416 221.5 373.0Q178 330 178 251V242Q178 162 221.5 119.0Q265 76 331 76Z" transform="translate(318.56 480) scale(0.042 -0.042)" fill="#FFFFFF" /><path d="M229 -14Q176 -14 134.5 4.0Q93 22 68.5 57.0Q44 92 44 142Q44 193 68.5 226.5Q93 260 135.5 277.0Q178 294 232 294H382V326Q382 369 356.0 395.0Q330 421 276 421Q223 421 195.0 396.0Q167 371 158 331L62 362Q74 402 100.5 434.5Q127 467 171.0 487.0Q215 507 277 507Q373 507 428.0 458.0Q483 409 483 319V116Q483 86 511 86H553V0H476Q441 0 419.0 18.0Q397 36 397 67V70H382Q374 55 358.0 35.0Q342 15 311.0 0.5Q280 -14 229 -14ZM244 71Q306 71 344.0 106.5Q382 142 382 204V214H238Q197 214 172.0 196.5Q147 179 147 145Q147 111 173.0 91.0Q199 71 244 71Z" transform="translate(345.482 480) scale(0.042 -0.042)" fill="#FFFFFF" /><path d="M76 0V493H177V435H193Q205 466 231.5 480.5Q258 495 297 495H356V402H293Q243 402 211.0 374.5Q179 347 179 290V0Z" transform="translate(369.716 480) scale(0.042 -0.042)" fill="#FFFFFF" /><path d="M229 -14Q176 -14 134.5 4.0Q93 22 68.5 57.0Q44 92 44 142Q44 193 68.5 226.5Q93 260 135.5 277.0Q178 294 232 294H382V326Q382 369 356.0 395.0Q330 421 276 421Q223 421 195.0 396.0Q167 371 158 331L62 362Q74 402 100.5 434.5Q127 467 171.0 487.0Q215 507 277 507Q373 507 428.0 458.0Q483 409 483 319V116Q483 86 511 86H553V0H476Q441 0 419.0 18.0Q397 36 397 67V70H382Q374 55 358.0 35.0Q342 15 311.0 0.5Q280 -14 229 -14ZM244 71Q306 71 344.0 106.5Q382 142 382 204V214H238Q197 214 172.0 196.5Q147 179 147 145Q147 111 173.0 91.0Q199 71 244 71Z" transform="translate(385.97 480) scale(0.042 -0.042)" fill="#FFFFFF" /><path d="M302 -14Q227 -14 171.0 17.5Q115 49 83.5 106.5Q52 164 52 240V252Q52 329 83.0 386.5Q114 444 169.5 475.5Q225 507 298 507Q369 507 422.5 475.5Q476 444 506.0 388.0Q536 332 536 257V218H157Q159 153 200.5 114.5Q242 76 304 76Q362 76 391.5 102.0Q421 128 437 162L522 118Q508 90 481.5 59.0Q455 28 412.0 7.0Q369 -14 302 -14ZM158 297H431Q427 353 391.0 384.5Q355 416 297 416Q239 416 202.5 384.5Q166 353 158 297Z" transform="translate(420.914 480) scale(0.042 -0.042)" fill="#FFFFFF" /><path d="M190 0 24 493H133L264 76H280L411 493H520L354 0Z" transform="translate(445.442 480) scale(0.042 -0.042)" fill="#FFFFFF" /><path d="M307 -14Q233 -14 175.5 16.5Q118 47 85.0 104.0Q52 161 52 239V254Q52 332 85.0 388.5Q118 445 175.5 476.0Q233 507 307 507Q381 507 439.0 476.0Q497 445 530.0 388.5Q563 332 563 254V239Q563 161 530.0 104.0Q497 47 439.0 16.5Q381 -14 307 -14ZM307 78Q375 78 417.5 121.5Q460 165 460 242V251Q460 328 418.0 371.5Q376 415 307 415Q240 415 197.5 371.5Q155 328 155 251V242Q155 165 197.5 121.5Q240 78 307 78Z" transform="translate(468.29 480) scale(0.042 -0.042)" fill="#FFFFFF" /><path d="M76 0V700H179V0Z" transform="translate(494.12 480) scale(0.042 -0.042)" fill="#FFFFFF" /><path d="M265 -9Q209 -9 165.0 16.0Q121 41 96.0 87.0Q71 133 71 197V493H174V204Q174 140 206.0 109.5Q238 79 295 79Q358 79 396.5 121.5Q435 164 435 244V493H538V0H437V74H421Q407 44 371.0 17.5Q335 -9 265 -9Z" transform="translate(504.872 480) scale(0.042 -0.042)" fill="#FFFFFF" /><path d="M76 0V493H179V0ZM128 560Q98 560 77.5 579.5Q57 599 57 630Q57 661 77.5 680.5Q98 700 128 700Q159 700 179.0 680.5Q199 661 199 630Q199 599 179.0 579.5Q159 560 128 560Z" transform="translate(530.66 480) scale(0.042 -0.042)" fill="#FFFFFF" /><path d="M76 0V493H177V435H193Q205 466 231.5 480.5Q258 495 297 495H356V402H293Q243 402 211.0 374.5Q179 347 179 290V0Z" transform="translate(541.4119999999999 480) scale(0.042 -0.042)" fill="#FFFFFF" /><path d="M138 -14Q103 -14 79.5 9.0Q56 32 56 68Q56 104 79.5 126.5Q103 149 138 149Q173 149 196.5 126.0Q220 103 220 68Q220 32 196.5 9.0Q173 -14 138 -14Z" transform="translate(557.6659999999999 480) scale(0.042 -0.042)" fill="#FFFFFF" /></g><g aria-label="bravite.com.br"><path d="M354 -14Q278 -14 235.5 15.0Q193 44 174 81H160V0H83V700H162V412H176Q188 435 210.0 455.5Q232 476 267.5 489.5Q303 503 354 503Q418 503 470.5 472.5Q523 442 554.0 385.5Q585 329 585 251V238Q585 160 553.5 103.0Q522 46 469.5 16.0Q417 -14 354 -14ZM333 56Q409 56 456.5 104.5Q504 153 504 240V249Q504 336 456.5 384.5Q409 433 333 433Q258 433 209.5 384.5Q161 336 161 249V240Q161 153 209.5 104.5Q258 56 333 56Z" transform="translate(80 566) scale(0.019 -0.019)" fill="#FFFFFF" /><path d="M83 0V489H160V429H174Q187 461 214.0 476.0Q241 491 285 491H343V419H280Q227 419 194.5 389.5Q162 360 162 298V0Z" transform="translate(92.236 566) scale(0.019 -0.019)" fill="#FFFFFF" /><path d="M233 -14Q182 -14 140.0 4.0Q98 22 74.0 56.0Q50 90 50 139Q50 189 74.0 221.5Q98 254 140.0 270.5Q182 287 234 287H399V323Q399 375 368.5 405.0Q338 435 278 435Q219 435 186.0 406.5Q153 378 141 330L67 354Q79 395 105.0 428.5Q131 462 174.5 482.5Q218 503 279 503Q373 503 425.0 454.5Q477 406 477 318V97Q477 67 505 67H550V0H481Q448 0 428.0 18.5Q408 37 408 68V73H396Q385 54 366.5 33.5Q348 13 316.0 -0.5Q284 -14 233 -14ZM242 54Q312 54 355.5 95.5Q399 137 399 212V223H237Q190 223 159.5 202.5Q129 182 129 141Q129 100 160.5 77.0Q192 54 242 54Z" transform="translate(99.399 566) scale(0.019 -0.019)" fill="#FFFFFF" /><path d="M207 0 32 489H116L263 59H277L424 489H508L333 0Z" transform="translate(110.324 566) scale(0.019 -0.019)" fill="#FFFFFF" /><path d="M83 0V489H162V0ZM123 565Q97 565 79.5 582.0Q62 599 62 625Q62 652 79.5 669.0Q97 686 123 686Q149 686 166.0 669.0Q183 652 183 625Q183 599 166.0 582.0Q149 565 123 565Z" transform="translate(120.565 566) scale(0.019 -0.019)" fill="#FFFFFF" /><path d="M263 0Q221 0 198.5 23.0Q176 46 176 86V420H29V489H176V663H255V489H415V420H255V98Q255 68 284 68H393V0Z" transform="translate(125.22 566) scale(0.019 -0.019)" fill="#FFFFFF" /><path d="M307 -14Q233 -14 177.0 17.5Q121 49 90.0 106.0Q59 163 59 238V250Q59 326 90.0 383.0Q121 440 176.0 471.5Q231 503 302 503Q371 503 424.0 473.5Q477 444 507.0 389.0Q537 334 537 260V224H138Q141 145 189.0 100.5Q237 56 309 56Q372 56 406.0 85.0Q440 114 458 154L526 121Q511 90 484.5 59.0Q458 28 415.5 7.0Q373 -14 307 -14ZM139 289H457Q453 357 410.5 395.0Q368 433 302 433Q235 433 192.0 395.0Q149 357 139 289Z" transform="translate(133.96 566) scale(0.019 -0.019)" fill="#FFFFFF" /><path d="M126 -14Q97 -14 77.5 5.0Q58 24 58 54Q58 84 77.5 103.0Q97 122 126 122Q156 122 175.0 103.0Q194 84 194 54Q194 24 175.0 5.0Q156 -14 126 -14Z" transform="translate(145.208 566) scale(0.019 -0.019)" fill="#FFFFFF" /><path d="M308 -14Q237 -14 180.5 16.5Q124 47 91.5 104.0Q59 161 59 239V250Q59 329 91.5 385.5Q124 442 180.5 472.5Q237 503 308 503Q378 503 427.5 477.0Q477 451 505.5 408.0Q534 365 542 316L465 300Q460 336 441.5 366.0Q423 396 390.0 414.0Q357 432 309 432Q260 432 221.5 410.0Q183 388 160.5 347.0Q138 306 138 249V240Q138 183 160.5 142.0Q183 101 221.5 79.0Q260 57 309 57Q382 57 420.5 95.0Q459 133 468 189L546 172Q535 124 506.0 81.0Q477 38 427.5 12.0Q378 -14 308 -14Z" transform="translate(150.015 566) scale(0.019 -0.019)" fill="#FFFFFF" /><path d="M309 -14Q235 -14 178.5 17.0Q122 48 90.5 104.5Q59 161 59 238V251Q59 327 90.5 384.0Q122 441 178.5 472.0Q235 503 309 503Q383 503 439.5 472.0Q496 441 527.5 384.0Q559 327 559 251V238Q559 161 527.5 104.5Q496 48 439.5 17.0Q383 -14 309 -14ZM309 57Q387 57 433.5 106.5Q480 156 480 240V249Q480 333 433.5 382.5Q387 432 309 432Q232 432 185.0 382.5Q138 333 138 249V240Q138 156 185.0 106.5Q232 57 309 57Z" transform="translate(161.37699999999998 566) scale(0.019 -0.019)" fill="#FFFFFF" /><path d="M83 0V489H160V428H174Q188 454 220.0 476.0Q252 498 310 498Q367 498 402.5 473.0Q438 448 454 412H468Q485 448 519.5 473.0Q554 498 616 498Q665 498 702.0 478.0Q739 458 760.5 420.5Q782 383 782 331V0H703V324Q703 373 674.5 401.5Q646 430 595 430Q541 430 506.5 395.0Q472 360 472 294V0H393V324Q393 373 364.5 401.5Q336 430 285 430Q231 430 196.5 395.0Q162 360 162 294V0Z" transform="translate(173.11899999999997 566) scale(0.019 -0.019)" fill="#FFFFFF" /><path d="M126 -14Q97 -14 77.5 5.0Q58 24 58 54Q58 84 77.5 103.0Q97 122 126 122Q156 122 175.0 103.0Q194 84 194 54Q194 24 175.0 5.0Q156 -14 126 -14Z" transform="translate(189.45899999999997 566) scale(0.019 -0.019)" fill="#FFFFFF" /><path d="M354 -14Q278 -14 235.5 15.0Q193 44 174 81H160V0H83V700H162V412H176Q188 435 210.0 455.5Q232 476 267.5 489.5Q303 503 354 503Q418 503 470.5 472.5Q523 442 554.0 385.5Q585 329 585 251V238Q585 160 553.5 103.0Q522 46 469.5 16.0Q417 -14 354 -14ZM333 56Q409 56 456.5 104.5Q504 153 504 240V249Q504 336 456.5 384.5Q409 433 333 433Q258 433 209.5 384.5Q161 336 161 249V240Q161 153 209.5 104.5Q258 56 333 56Z" transform="translate(194.26599999999996 566) scale(0.019 -0.019)" fill="#FFFFFF" /><path d="M83 0V489H160V429H174Q187 461 214.0 476.0Q241 491 285 491H343V419H280Q227 419 194.5 389.5Q162 360 162 298V0Z" transform="translate(206.50199999999995 566) scale(0.019 -0.019)" fill="#FFFFFF" /></g><g aria-label="@bravite.br"><path d="M532 -200Q398 -200 295.5 -148.0Q193 -96 135.0 2.5Q77 101 77 242V263Q77 403 132.0 501.5Q187 600 285.5 652.0Q384 704 514 704H535Q659 704 753.0 653.5Q847 603 900.0 510.0Q953 417 953 287V253Q953 126 906.5 63.0Q860 0 775 0H742Q701 0 680.0 18.5Q659 37 659 68V78H645Q637 57 619.5 36.5Q602 16 572.5 2.0Q543 -12 497 -12Q438 -12 391.0 20.0Q344 52 317.5 108.0Q291 164 291 233V251Q291 322 317.0 377.0Q343 432 389.0 464.0Q435 496 494 496Q539 496 568.0 483.5Q597 471 614.0 452.0Q631 433 641 414H655V484H732V96Q732 81 737.5 75.0Q743 69 757 69H769Q825 69 849.5 112.5Q874 156 874 257V285Q874 396 833.0 473.5Q792 551 716.0 592.0Q640 633 534 633H517Q408 633 327.0 591.0Q246 549 201.0 466.0Q156 383 156 260V244Q156 122 203.5 38.5Q251 -45 337.0 -87.0Q423 -129 536 -129H732V-200ZM512 59Q575 59 615.0 106.0Q655 153 655 237V247Q655 331 615.0 378.5Q575 426 512 426Q449 426 409.0 378.0Q369 330 369 248V236Q369 155 409.0 107.0Q449 59 512 59Z" transform="translate(981 566) scale(0.019 -0.019)" fill="#FFFFFF" /><path d="M354 -14Q278 -14 235.5 15.0Q193 44 174 81H160V0H83V700H162V412H176Q188 435 210.0 455.5Q232 476 267.5 489.5Q303 503 354 503Q418 503 470.5 472.5Q523 442 554.0 385.5Q585 329 585 251V238Q585 160 553.5 103.0Q522 46 469.5 16.0Q417 -14 354 -14ZM333 56Q409 56 456.5 104.5Q504 153 504 240V249Q504 336 456.5 384.5Q409 433 333 433Q258 433 209.5 384.5Q161 336 161 249V240Q161 153 209.5 104.5Q258 56 333 56Z" transform="translate(1000.494 566) scale(0.019 -0.019)" fill="#FFFFFF" /><path d="M83 0V489H160V429H174Q187 461 214.0 476.0Q241 491 285 491H343V419H280Q227 419 194.5 389.5Q162 360 162 298V0Z" transform="translate(1012.73 566) scale(0.019 -0.019)" fill="#FFFFFF" /><path d="M233 -14Q182 -14 140.0 4.0Q98 22 74.0 56.0Q50 90 50 139Q50 189 74.0 221.5Q98 254 140.0 270.5Q182 287 234 287H399V323Q399 375 368.5 405.0Q338 435 278 435Q219 435 186.0 406.5Q153 378 141 330L67 354Q79 395 105.0 428.5Q131 462 174.5 482.5Q218 503 279 503Q373 503 425.0 454.5Q477 406 477 318V97Q477 67 505 67H550V0H481Q448 0 428.0 18.5Q408 37 408 68V73H396Q385 54 366.5 33.5Q348 13 316.0 -0.5Q284 -14 233 -14ZM242 54Q312 54 355.5 95.5Q399 137 399 212V223H237Q190 223 159.5 202.5Q129 182 129 141Q129 100 160.5 77.0Q192 54 242 54Z" transform="translate(1019.893 566) scale(0.019 -0.019)" fill="#FFFFFF" /><path d="M207 0 32 489H116L263 59H277L424 489H508L333 0Z" transform="translate(1030.818 566) scale(0.019 -0.019)" fill="#FFFFFF" /><path d="M83 0V489H162V0ZM123 565Q97 565 79.5 582.0Q62 599 62 625Q62 652 79.5 669.0Q97 686 123 686Q149 686 166.0 669.0Q183 652 183 625Q183 599 166.0 582.0Q149 565 123 565Z" transform="translate(1041.059 566) scale(0.019 -0.019)" fill="#FFFFFF" /><path d="M263 0Q221 0 198.5 23.0Q176 46 176 86V420H29V489H176V663H255V489H415V420H255V98Q255 68 284 68H393V0Z" transform="translate(1045.714 566) scale(0.019 -0.019)" fill="#FFFFFF" /><path d="M307 -14Q233 -14 177.0 17.5Q121 49 90.0 106.0Q59 163 59 238V250Q59 326 90.0 383.0Q121 440 176.0 471.5Q231 503 302 503Q371 503 424.0 473.5Q477 444 507.0 389.0Q537 334 537 260V224H138Q141 145 189.0 100.5Q237 56 309 56Q372 56 406.0 85.0Q440 114 458 154L526 121Q511 90 484.5 59.0Q458 28 415.5 7.0Q373 -14 307 -14ZM139 289H457Q453 357 410.5 395.0Q368 433 302 433Q235 433 192.0 395.0Q149 357 139 289Z" transform="translate(1054.454 566) scale(0.019 -0.019)" fill="#FFFFFF" /><path d="M126 -14Q97 -14 77.5 5.0Q58 24 58 54Q58 84 77.5 103.0Q97 122 126 122Q156 122 175.0 103.0Q194 84 194 54Q194 24 175.0 5.0Q156 -14 126 -14Z" transform="translate(1065.702 566) scale(0.019 -0.019)" fill="#FFFFFF" /><path d="M354 -14Q278 -14 235.5 15.0Q193 44 174 81H160V0H83V700H162V412H176Q188 435 210.0 455.5Q232 476 267.5 489.5Q303 503 354 503Q418 503 470.5 472.5Q523 442 554.0 385.5Q585 329 585 251V238Q585 160 553.5 103.0Q522 46 469.5 16.0Q417 -14 354 -14ZM333 56Q409 56 456.5 104.5Q504 153 504 240V249Q504 336 456.5 384.5Q409 433 333 433Q258 433 209.5 384.5Q161 336 161 249V240Q161 153 209.5 104.5Q258 56 333 56Z" transform="translate(1070.509 566) scale(0.019 -0.019)" fill="#FFFFFF" /><path d="M83 0V489H160V429H174Q187 461 214.0 476.0Q241 491 285 491H343V419H280Q227 419 194.5 389.5Q162 360 162 298V0Z" transform="translate(1082.7450000000001 566) scale(0.019 -0.019)" fill="#FFFFFF" /></g><path d="M1080 72H1120V112" stroke="#2D6BFF" fill="none" stroke-width="3" /></svg>