<svg xmlns="http://www.w3.org/2000/svg" width="210mm" height="297mm" viewBox="0 0 210 297" role="img" aria-label="Papel timbrado BRAVITE — A4 — versão limpa"><title>Papel timbrado BRAVITE — A4 — versão limpa</title><desc>BRAVITE. Arte RGB. Textos editáveis; logotipo original em curvas. Tipografia Space Grotesk, incluída no kit.</desc><rect x="0" y="0" width="210" height="297" fill="#FFFFFF" /><g transform="translate(18,18) scale(0.08157894736842106) translate(-58,-76)"><path d="M60 118L118 79H186L152 104H121L60 145Z M78 184L130 149H202L156 184Z" fill="#0A0A0A" /><path d="M60 155L125 112H198L158 141H126L60 184Z" fill="#2D6BFF" /><path d="M260 96H301C317 96 324 104 324 115C324 123 320 129 313 132C321 135 325 141 325 150C325 160 317 166 301 166H260Z M269 104V128H300C310 128 315 124 315 116C315 108 310 104 301 104Z M269 136V158H301C311 158 316 155 316 149C316 141 311 136 301 136Z" fill="#0A0A0A" fill-rule="evenodd" /><path d="M357 96H389C406 96 413 105 413 116C413 128 405 135 390 135H385L413 166H401L373 127H389C399 127 404 123 404 116C404 108 399 104 389 104H366V166H357Z" fill="#0A0A0A" fill-rule="evenodd" /><path d="M439 166L465 96H477L505 166H495L471 106L449 166Z" fill="#0A0A0A" fill-rule="evenodd" /><path d="M519 96H529L554 157L580 96H590L560 166H549Z" fill="#0A0A0A" fill-rule="evenodd" /><path d="M618 96H627V166H618Z" fill="#0A0A0A" fill-rule="evenodd" /><path d="M659 96H719V104H694V166H684V104H659Z" fill="#0A0A0A" fill-rule="evenodd" /><path d="M751 96H809V104H760V128H803V136H760V158H809V166H751Z" fill="#0A0A0A" fill-rule="evenodd" /></g><text x="147" y="27" font-family="Space Grotesk" font-size="3.1" font-weight="500" letter-spacing="0.45" fill="#0A0A0A">SOFTWARE HOUSE</text><path d="M18 43H192" fill="none" stroke="#0A0A0A" stroke-width="0.35" /><path d="M18 267H192" fill="none" stroke="#2D6BFF" stroke-width="1.2" /><text x="18" y="278" font-family="Space Grotesk" font-size="3.5" font-weight="500" letter-spacing="0" fill="#0A0A0A">www.bravite.com.br</text><text x="155" y="278" font-family="Space Grotesk" font-size="3.5" font-weight="400" letter-spacing="0" fill="#0A0A0A">@bravite.br</text><text x="18" y="286" font-family="Space Grotesk" font-size="2.8" font-weight="400" letter-spacing="0" fill="#5A6475">Coragem para criar. Engenharia para evoluir.</text></svg>